<!-- icon666.com - MILLIONS vector ICONS FREE --><svg id="Layer_1" enable-background="new 54 -1 512 512" viewBox="54 -1 512 512" xmlns="http://www.w3.org/2000/svg"><g id="_x32_3_Personalization"><g id="XMLID_1985_"><path id="XMLID_2037_" d="m310 405c-82.7 0-150-67.3-150-150s67.3-150 150-150 150 67.3 150 150-67.3 150-150 150z" fill="#d3def7" style="fill: rgb(0, 46, 153);"></path><g id="XMLID_2147_"><path id="XMLID_2148_" d="m305 250c49 0 94.1 25.7 119.3 66.8 10-18.4 15.7-39.5 15.7-61.8 0-71.7-58.3-130-130-130s-130 58.3-130 130c0 18.9 4.1 36.9 11.4 53.2 26.1-36.3 68.2-58.2 113.6-58.2z" fill="#9ad3f1" style="fill: rgb(0, 33, 163);"></path><path id="XMLID_2035_" d="m305 250c-45.4 0-87.5 21.9-113.6 58.2 3.1 6.9 6.8 13.4 11 19.6 23.4 34.5 62.9 57.2 107.6 57.2 41.3 0 78.1-19.3 102-49.4 4.6-5.9 8.8-12.1 12.4-18.8-25.3-41.1-70.4-66.8-119.4-66.8z" fill="#7474c2" style="fill: rgb(255, 255, 255);"></path></g><g id="XMLID_2014_"><path id="XMLID_2032_" d="m310 270c-33.1 0-60-26.9-60-60s26.9-60 60-60 60 26.9 60 60-26.9 60-60 60z" fill="#f7cbb6" style="fill: rgb(255, 255, 255);"></path></g><path id="XMLID_2012_" d="m554.6 182.7c-1.6-5.3-7.1-8.3-12.4-6.8-5.3 1.6-8.3 7.1-6.8 12.4 24.4 82.7 1.7 171.9-59.2 232.8-90.1 90.1-235.9 91.6-327.9 4.4l28.6-5.7c5.4-1.1 8.9-6.4 7.8-11.8s-6.4-8.9-11.8-7.8l-50 10c-4.7.9-8 5-8 9.8v50c0 5.5 4.5 10 10 10s10-4.5 10-10v-29.5c47 44.9 109.4 69.5 175 69.5 68.1 0 132.1-26.5 180.3-74.7 66.2-66.1 90.8-162.8 64.4-252.6z" fill="#fac14e" style="fill: rgb(255, 255, 255);"></path><path id="XMLID_2034_" d="m495 30c-5.5 0-10 4.5-10 10v29.5c-48-44.9-109.4-69.5-175-69.5-68.1 0-132.2 26.5-180.3 74.7-32.4 32.4-55.5 72.9-66.8 117.1-10.9 42.9-10.5 88.2 1.2 130.8 1.2 4.4 5.2 7.4 9.6 7.4.9 0 1.8-.1 2.6-.4 5.3-1.5 8.5-7 7-12.3-22.2-81.3.9-168.9 60.5-228.5 90.2-90.1 235.9-91.6 327.9-4.3l-28.7 5.7c-5.4 1.1-8.9 6.4-7.8 11.8 1 4.8 5.1 8 9.8 8 .6 0 1.3-.1 2-.2l50-10c4.7-.9 8-5 8-9.8v-50c0-5.5-4.5-10-10-10z" fill="#fa7949" style="fill: rgb(255, 255, 255);"></path></g></g><g id="Layer_1_1_"></g></svg>